<mxfile host="Electron" modified="2024-04-29T14:12:45.573Z" agent="Mozilla/5.0 (Macintosh; Intel Mac OS X 10_15_7) AppleWebKit/537.36 (KHTML, like Gecko) draw.io/24.2.5 Chrome/120.0.6099.109 Electron/28.1.0 Safari/537.36" etag="RHO4wQ8mhniwuXBzAglq" version="24.2.5" type="device">
  <diagram id="a29Px212CZuS3pcTVqm0" name="Page-1">
    <mxGraphModel dx="1306" dy="834" grid="1" gridSize="10" guides="1" tooltips="1" connect="1" arrows="1" fold="1" page="1" pageScale="1" pageWidth="827" pageHeight="1169" math="0" shadow="0">
      <root>
        <mxCell id="0" />
        <mxCell id="1" parent="0" />
        <mxCell id="9-4ljG6oUZr8IqiGwlKw-10" style="edgeStyle=orthogonalEdgeStyle;rounded=0;orthogonalLoop=1;jettySize=auto;html=1;entryX=0;entryY=0.5;entryDx=0;entryDy=0;endArrow=none;endFill=0;" parent="1" source="9-4ljG6oUZr8IqiGwlKw-1" target="9-4ljG6oUZr8IqiGwlKw-4" edge="1">
          <mxGeometry relative="1" as="geometry" />
        </mxCell>
        <mxCell id="9-4ljG6oUZr8IqiGwlKw-11" style="edgeStyle=orthogonalEdgeStyle;rounded=0;orthogonalLoop=1;jettySize=auto;html=1;entryX=0;entryY=0.5;entryDx=0;entryDy=0;endArrow=none;endFill=0;" parent="1" source="9-4ljG6oUZr8IqiGwlKw-1" target="9-4ljG6oUZr8IqiGwlKw-5" edge="1">
          <mxGeometry relative="1" as="geometry" />
        </mxCell>
        <mxCell id="9-4ljG6oUZr8IqiGwlKw-12" style="edgeStyle=orthogonalEdgeStyle;rounded=0;orthogonalLoop=1;jettySize=auto;html=1;entryX=0;entryY=0.5;entryDx=0;entryDy=0;endArrow=none;endFill=0;" parent="1" source="9-4ljG6oUZr8IqiGwlKw-1" target="9-4ljG6oUZr8IqiGwlKw-6" edge="1">
          <mxGeometry relative="1" as="geometry" />
        </mxCell>
        <mxCell id="9-4ljG6oUZr8IqiGwlKw-16" style="edgeStyle=orthogonalEdgeStyle;rounded=0;orthogonalLoop=1;jettySize=auto;html=1;entryX=0;entryY=0.5;entryDx=0;entryDy=0;endArrow=none;endFill=0;" parent="1" source="9-4ljG6oUZr8IqiGwlKw-1" target="9-4ljG6oUZr8IqiGwlKw-9" edge="1">
          <mxGeometry relative="1" as="geometry" />
        </mxCell>
        <mxCell id="9-4ljG6oUZr8IqiGwlKw-1" value="Lecteur" style="shape=umlActor;verticalLabelPosition=bottom;verticalAlign=top;html=1;outlineConnect=0;" parent="1" vertex="1">
          <mxGeometry x="60" y="230" width="30" height="60" as="geometry" />
        </mxCell>
        <mxCell id="9-4ljG6oUZr8IqiGwlKw-13" style="edgeStyle=orthogonalEdgeStyle;rounded=0;orthogonalLoop=1;jettySize=auto;html=1;entryX=0;entryY=0.5;entryDx=0;entryDy=0;endArrow=none;endFill=0;" parent="1" source="9-4ljG6oUZr8IqiGwlKw-2" target="9-4ljG6oUZr8IqiGwlKw-8" edge="1">
          <mxGeometry relative="1" as="geometry" />
        </mxCell>
        <mxCell id="9-4ljG6oUZr8IqiGwlKw-14" style="edgeStyle=orthogonalEdgeStyle;rounded=0;orthogonalLoop=1;jettySize=auto;html=1;entryX=0;entryY=0.5;entryDx=0;entryDy=0;endArrow=none;endFill=0;" parent="1" source="9-4ljG6oUZr8IqiGwlKw-2" target="9-4ljG6oUZr8IqiGwlKw-7" edge="1">
          <mxGeometry relative="1" as="geometry" />
        </mxCell>
        <mxCell id="9-4ljG6oUZr8IqiGwlKw-2" value="Bibliothécaire" style="shape=umlActor;verticalLabelPosition=bottom;verticalAlign=top;html=1;outlineConnect=0;" parent="1" vertex="1">
          <mxGeometry x="60" y="835" width="30" height="60" as="geometry" />
        </mxCell>
        <mxCell id="9-4ljG6oUZr8IqiGwlKw-15" style="edgeStyle=orthogonalEdgeStyle;rounded=0;orthogonalLoop=1;jettySize=auto;html=1;entryX=1;entryY=0.5;entryDx=0;entryDy=0;endArrow=none;endFill=0;" parent="1" source="9-4ljG6oUZr8IqiGwlKw-3" target="9-4ljG6oUZr8IqiGwlKw-9" edge="1">
          <mxGeometry relative="1" as="geometry" />
        </mxCell>
        <mxCell id="ZLxAZEnTvvCLXn4nD1PO-2" style="edgeStyle=orthogonalEdgeStyle;rounded=0;orthogonalLoop=1;jettySize=auto;html=1;entryX=1;entryY=0.5;entryDx=0;entryDy=0;endArrow=none;endFill=0;" edge="1" parent="1" source="9-4ljG6oUZr8IqiGwlKw-3" target="ZLxAZEnTvvCLXn4nD1PO-1">
          <mxGeometry relative="1" as="geometry" />
        </mxCell>
        <mxCell id="ZLxAZEnTvvCLXn4nD1PO-10" style="edgeStyle=orthogonalEdgeStyle;rounded=0;orthogonalLoop=1;jettySize=auto;html=1;entryX=1;entryY=0.5;entryDx=0;entryDy=0;endArrow=none;endFill=0;" edge="1" parent="1" source="9-4ljG6oUZr8IqiGwlKw-3" target="9-4ljG6oUZr8IqiGwlKw-4">
          <mxGeometry relative="1" as="geometry" />
        </mxCell>
        <mxCell id="ZLxAZEnTvvCLXn4nD1PO-11" style="edgeStyle=orthogonalEdgeStyle;rounded=0;orthogonalLoop=1;jettySize=auto;html=1;entryX=1;entryY=0.5;entryDx=0;entryDy=0;endArrow=none;endFill=0;" edge="1" parent="1" source="9-4ljG6oUZr8IqiGwlKw-3" target="9-4ljG6oUZr8IqiGwlKw-5">
          <mxGeometry relative="1" as="geometry" />
        </mxCell>
        <mxCell id="ZLxAZEnTvvCLXn4nD1PO-12" style="edgeStyle=orthogonalEdgeStyle;rounded=0;orthogonalLoop=1;jettySize=auto;html=1;entryX=1;entryY=0.5;entryDx=0;entryDy=0;endArrow=none;endFill=0;" edge="1" parent="1" source="9-4ljG6oUZr8IqiGwlKw-3" target="9-4ljG6oUZr8IqiGwlKw-6">
          <mxGeometry relative="1" as="geometry" />
        </mxCell>
        <mxCell id="9-4ljG6oUZr8IqiGwlKw-3" value="Système de Gestion" style="shape=umlActor;verticalLabelPosition=bottom;verticalAlign=top;html=1;outlineConnect=0;" parent="1" vertex="1">
          <mxGeometry x="700" y="230" width="30" height="60" as="geometry" />
        </mxCell>
        <mxCell id="9-4ljG6oUZr8IqiGwlKw-7" value="Ajouter un nouveau livre" style="ellipse;whiteSpace=wrap;html=1;" parent="1" vertex="1">
          <mxGeometry x="270" y="780" width="266" height="80" as="geometry" />
        </mxCell>
        <mxCell id="9-4ljG6oUZr8IqiGwlKw-8" value="Retirer un livre obsolète" style="ellipse;whiteSpace=wrap;html=1;" parent="1" vertex="1">
          <mxGeometry x="270" y="890" width="266" height="80" as="geometry" />
        </mxCell>
        <mxCell id="ZLxAZEnTvvCLXn4nD1PO-1" value="Envoyer des rappels" style="ellipse;whiteSpace=wrap;html=1;" vertex="1" parent="1">
          <mxGeometry x="270" y="580" width="266" height="80" as="geometry" />
        </mxCell>
        <mxCell id="ZLxAZEnTvvCLXn4nD1PO-3" value="&lt;b&gt;Emprunt de livres&lt;/b&gt;" style="shape=umlFrame;whiteSpace=wrap;html=1;pointerEvents=0;recursiveResize=0;container=1;collapsible=0;width=160;" vertex="1" parent="1">
          <mxGeometry x="220" y="30" width="340" height="460" as="geometry" />
        </mxCell>
        <mxCell id="9-4ljG6oUZr8IqiGwlKw-4" value="Emprunter un livre" style="ellipse;whiteSpace=wrap;html=1;" parent="ZLxAZEnTvvCLXn4nD1PO-3" vertex="1">
          <mxGeometry x="50" y="40" width="266" height="80" as="geometry" />
        </mxCell>
        <mxCell id="9-4ljG6oUZr8IqiGwlKw-5" value="Retourner un livre" style="ellipse;whiteSpace=wrap;html=1;" parent="ZLxAZEnTvvCLXn4nD1PO-3" vertex="1">
          <mxGeometry x="50" y="140" width="266" height="80" as="geometry" />
        </mxCell>
        <mxCell id="9-4ljG6oUZr8IqiGwlKw-6" value="Rechercher des livres" style="ellipse;whiteSpace=wrap;html=1;" parent="ZLxAZEnTvvCLXn4nD1PO-3" vertex="1">
          <mxGeometry x="50" y="250" width="266" height="80" as="geometry" />
        </mxCell>
        <mxCell id="9-4ljG6oUZr8IqiGwlKw-9" value="Vérifier la disponibilité des livres" style="ellipse;whiteSpace=wrap;html=1;" parent="ZLxAZEnTvvCLXn4nD1PO-3" vertex="1">
          <mxGeometry x="50" y="365" width="266" height="80" as="geometry" />
        </mxCell>
        <mxCell id="ZLxAZEnTvvCLXn4nD1PO-4" value="&lt;b&gt;Rappels&lt;/b&gt;" style="shape=umlFrame;whiteSpace=wrap;html=1;pointerEvents=0;recursiveResize=0;container=1;collapsible=0;width=160;" vertex="1" parent="1">
          <mxGeometry x="220" y="540" width="340" height="140" as="geometry" />
        </mxCell>
        <mxCell id="ZLxAZEnTvvCLXn4nD1PO-9" value="&lt;b&gt;Gestion des livres&lt;/b&gt;" style="shape=umlFrame;whiteSpace=wrap;html=1;pointerEvents=0;recursiveResize=0;container=1;collapsible=0;width=160;" vertex="1" parent="1">
          <mxGeometry x="220" y="740" width="340" height="250" as="geometry" />
        </mxCell>
      </root>
    </mxGraphModel>
  </diagram>
</mxfile>
